<?xml version="1.0" standalone="no"?><!DOCTYPE svg PUBLIC "-//W3C//DTD SVG 1.1//EN" "http://www.w3.org/Graphics/SVG/1.1/DTD/svg11.dtd"><svg t="1513150460421" class="icon" style="" viewBox="0 0 1024 1024" version="1.1" xmlns="http://www.w3.org/2000/svg" p-id="33576" xmlns:xlink="http://www.w3.org/1999/xlink" width="32" height="32"><defs><style type="text/css"></style></defs><path d="M788.684128 581.064227V154.750368c0-47.088206 38.173121-85.261327 85.261327-85.261327h149.20973v596.836513h-149.20973c-47.088206 0-85.261327-38.173121-85.261327-85.261327z" fill="#FEC33C" p-id="33577"></path><path d="M81.643786 510.08292a78.014211 78.014211 0 0 0-12.364144 42.630664v4.050779c1.788312 55.05498 46.183219 99.170689 101.250234 100.610003l229.996667 14.282428-13.642198 71.407324a196.53381 196.53381 0 0 0 22.593385 133.861055l12.790162 21.315332c14.920251 26.003935 24.940094 40.926593 55.206614 47.321673h3.410549a66.078492 66.078492 0 0 0 53.502542-12.149932 59.892809 59.892809 0 0 0 23.659633-47.533478v-61.815907a157.7349 157.7349 0 0 1 24.299864-83.771469l75.669909-120.647281a63.950809 63.950809 0 0 1 54.780596-29.628697h83.557256V103.380322h-82.705221a201.44866 201.44866 0 0 1-46.467231-5.543045l-73.113802-17.478765a464.556779 464.556779 0 0 0-108.283138-12.790162c-14.920251 0-30.054714 0-44.974965 2.132496l-215.288221 23.447828c-63.305765 5.547859-112.225607 57.962491-113.400165 121.499317v10.871879a19.423524 19.423524 0 0 0 1.492265 7.247116 99.969773 99.969773 0 0 0-44.122929 82.279203v12.364144a58.838596 58.838596 0 0 0 6.180868 26.43236 101.036021 101.036021 0 0 0-48.813939 85.261327v10.871878c0.750947 30.877867 24.104906 56.506329 54.785409 60.107022z" fill="#F5E6C6" p-id="33578"></path><path d="M1001.839853 645.010222h-106.579066c-63.945996 0-85.261327-21.315332-85.261328-85.261327V176.0657c0-63.945996 21.315332-85.261327 85.261328-85.261327v362.365455a21.315332 21.315332 0 0 0 42.630664 0V90.804373h63.945995a21.315332 21.315332 0 0 0 0-42.630664h-106.579066c-50.732223 0-85.261327 14.282428-106.579066 42.630664h-101.676251a192.933117 192.933117 0 0 1-47.533479-5.754851l-73.111396-18.3308a445.068269 445.068269 0 0 0-153.472315-11.083684L198.666306 80.146707c-64.920782 7.403564-113.818962 62.554819-113.400165 127.894398v10.657666a21.312925 21.312925 0 0 0 1.492266 7.461329 106.576659 106.576659 0 0 0-44.122929 85.261327v13.854003a63.943589 63.943589 0 0 0 6.180868 27.496201A106.581473 106.581473 0 0 0 0.002407 441.871932v11.297896c-0.315301 32.095749 23.211954 59.454757 54.994808 63.945996a85.275769 85.275769 0 0 0-12.364144 42.630664v4.262585c-0.072206 56.840885 44.479148 103.736541 101.250233 106.579066l236.603553 11.935719-13.642197 74.817874a213.16776 213.16776 0 0 0 22.593385 140.256136l12.790162 23.447827a106.574252 106.574252 0 0 0 71.193112 53.28833h3.41055c4.411812 0.969973 8.912678 1.470604 13.427985 1.492266 35.316155 0 63.945996-28.629841 63.945995-63.945996v-63.945995a170.5034 170.5034 0 0 1 24.299864-87.819842l75.669909-126.18792a63.943589 63.943589 0 0 1 54.780596-31.54698h63.945995c12.364144 57.553322 52.010276 85.261327 123.203389 85.261328h106.579066a21.315332 21.315332 0 0 0 0-42.630664h-0.844815z m-292.876415-85.263734a106.576659 106.576659 0 0 0-90.804372 51.796064l-75.66991 126.18792a213.141284 213.141284 0 0 0-30.90675 109.563598v63.948402a21.315332 21.315332 0 0 1-25.792129 21.315332h-3.410549a63.948403 63.948403 0 0 1-42.630664-31.972998l-12.790162-23.447828a170.532283 170.532283 0 0 1-18.118995-112.119704l14.494233-80.146707 24.299864 0.64023a21.315332 21.315332 0 0 0 0-42.630664l-302.682045-15.134463c-34.06217-1.704071-60.792982-29.842909-60.749659-63.945996v-4.050779c0-23.544103 19.086561-42.630664 42.630664-42.630664h63.945996a21.315332 21.315332 0 0 0 0-42.630664H63.953216a21.315332 21.315332 0 0 1-21.315332-21.315332v-11.297896c-0.315301-32.098156 23.211954-59.454757 54.994808-63.945995l75.884122-10.017436a21.522324 21.522324 0 0 0-5.969063-42.630664l-76.095927 10.871878h-2.346709a21.310518 21.310518 0 0 1-3.836567-10.871878v-13.001967c-0.423611-31.609559 22.314187-58.785644 53.502542-63.945996l56.698879-8.313364a21.604158 21.604158 0 0 0-7.032904-42.630664l-56.698879 9.379612H127.901619c-0.276791-43.583788 32.362912-80.360919 75.669909-85.261327l215.07401-24.514076a403.720473 403.720473 0 0 1 138.552064 10.017436l73.111395 18.3308a234.478278 234.478278 0 0 0 56.913092 7.035311h85.261327a200.485908 200.485908 0 0 0-5.11462 43.696912v383.680787h-58.405358v-0.00722z" fill="#C89406" p-id="33579"></path><path d="M916.578526 517.115824a21.315332 21.315332 0 0 0-21.315332 21.315332v42.630664a21.315332 21.315332 0 0 0 42.630664 0v-42.630664a21.315332 21.315332 0 0 0-21.315332-21.315332z" fill="#C89406" p-id="33580"></path></svg>